<svg width="40" height="38" viewBox="0 0 40 38" fill="none" xmlns="http://www.w3.org/2000/svg">
<path d="M39.913 11.2761L35.2609 25.1956C34.913 26.1869 34 26.8478 32.913 26.8478H14.9565C13.913 26.8478 12.913 26.2282 12.5652 25.3195L5.69565 7.8478H1.73913C0.782609 7.8478 0 7.10433 0 6.19563C0 5.28694 0.782609 4.54346 1.73913 4.54346H6.91304C7.65217 4.54346 8.30435 4.9978 8.56522 5.65867L15.6522 23.5435H32.1739L35.8696 12.3913H15.3913C14.4348 12.3913 13.6522 11.6478 13.6522 10.7391C13.6522 9.83041 14.4348 9.08694 15.3913 9.08694H38.2609C38.8261 9.08694 39.3478 9.37607 39.6522 9.78911C40 10.2022 40.087 10.7804 39.913 11.2761ZM15.8261 29.0369C15.087 29.0369 14.3478 29.3261 13.8261 29.8217C13.3043 30.3174 13 31.0195 13 31.7217C13 32.4239 13.3043 33.1261 13.8261 33.6217C14.3478 34.1174 15.087 34.4065 15.8261 34.4065C16.5652 34.4065 17.3043 34.1174 17.8261 33.6217C18.3478 33.1261 18.6522 32.4239 18.6522 31.7217C18.6522 31.0195 18.3478 30.3174 17.8261 29.8217C17.3043 29.3261 16.5652 29.0369 15.8261 29.0369ZM31.4348 29.0369C30.6957 29.0369 29.9565 29.3261 29.4348 29.8217C28.913 30.3174 28.6087 31.0195 28.6087 31.7217C28.6087 32.4239 28.913 33.1261 29.4348 33.6217C29.9565 34.1174 30.6957 34.4065 31.4348 34.4065C32.1739 34.4065 32.913 34.1174 33.4348 33.6217C33.9565 33.1261 34.2609 32.4239 34.2609 31.7217C34.2609 31.0195 33.9565 30.3174 33.4348 29.8217C32.913 29.3261 32.1739 29.0369 31.4348 29.0369Z" fill="white"/>
</svg>
