<svg width="32" height="32" viewBox="0 0 32 32" fill="none" xmlns="http://www.w3.org/2000/svg">
<g clip-path="url(#clip0_12_28)">
<path d="M27.1071 1.20288L4.51504 0.882058C2.73257 0.856747 1.2652 2.28323 1.23758 4.0682L0.88745 26.692C0.859825 28.477 2.2824 29.9445 4.06487 29.9698L26.6569 30.2906C28.4394 30.316 29.9068 28.8895 29.9344 27.1045L30.2845 4.48068C30.3122 2.69571 28.8896 1.22819 27.1071 1.20288Z" fill="black"/>
<path fill-rule="evenodd" clip-rule="evenodd" d="M25.6077 6.36397L25.5634 10.1869L23.3919 10.1621C21.6897 10.138 21.352 10.9783 21.3377 12.2132L21.306 14.9489L25.3606 15.0063L24.7851 19.2768L21.2564 19.2268L21.1275 30.3588L16.8982 30.2989L17.0271 19.167L13.4865 19.1168L13.5361 14.839L17.0766 14.8891L17.1132 11.7338C17.1556 8.07043 19.3158 6.10354 22.4486 6.14788C23.9421 6.16902 25.2295 6.30543 25.6077 6.36397Z" fill="white"/>
</g>
<defs>
<clipPath id="clip0_12_28">
<rect width="30" height="30" fill="white" transform="translate(29.9761) rotate(87.7141)"/>
</clipPath>
</defs>
</svg>
