<svg width="30" height="30" viewBox="0 0 30 30" fill="none" xmlns="http://www.w3.org/2000/svg">
<g clip-path="url(#clip0_12_34)">
<path d="M14.6883 29.9968C22.9708 30.169 29.8247 23.5944 29.997 15.3119C30.1693 7.02947 23.5946 0.175518 15.3122 0.00324449C7.02973 -0.169029 0.175774 6.40561 0.0034999 14.6881C-0.168774 22.9705 6.40587 29.8245 14.6883 29.9968Z" fill="black"/>
<path fill-rule="evenodd" clip-rule="evenodd" d="M15.3538 24.3011L15.3501 24.3011C13.8577 24.2694 12.3989 23.8645 11.1112 23.127L6.35811 24.2687L7.71932 19.6741C6.96706 18.3054 6.58837 16.7628 6.62168 15.1911C6.72595 10.2744 10.8095 6.3574 15.7248 6.45964C18.1103 6.51029 20.33 7.48553 21.9786 9.20619C23.6272 10.9267 24.5072 13.1864 24.4567 15.5692C24.3526 20.4847 20.2705 24.4014 15.3538 24.3011ZM11.3638 21.5171L11.6311 21.6834C12.7551 22.3824 14.0521 22.7669 15.3821 22.795L15.3851 22.7951C19.4703 22.8801 22.8644 19.6242 22.9511 15.5373C22.9931 13.5569 22.2616 11.6786 20.8914 10.2485C19.5211 8.81838 17.6762 8.00777 15.6965 7.96591C11.6081 7.88087 8.21397 11.1364 8.12735 15.2229C8.09766 16.6234 8.46114 17.9956 9.1785 19.191L9.34894 19.4751L8.54327 22.1947L11.3638 21.5171ZM19.6868 17.3907C19.8406 17.469 19.9445 17.5219 19.9878 17.5977C20.0415 17.6917 20.0322 18.1378 19.8358 18.6545C19.6392 19.1711 18.7392 19.6276 18.3097 19.6827C17.9247 19.7321 17.4384 19.7459 16.9081 19.5652C16.5867 19.4558 16.1745 19.3101 15.6477 19.0694C13.5776 18.124 12.208 16.0701 11.9491 15.6819C11.931 15.6547 11.9183 15.6357 11.9112 15.6258L11.9095 15.6234C11.7949 15.4636 11.0267 14.3929 11.0494 13.3019C11.0707 12.2755 11.586 11.7481 11.8233 11.5053C11.8396 11.4886 11.8545 11.4733 11.8679 11.4593C12.0768 11.2405 12.3193 11.1897 12.4678 11.1928C12.6164 11.1959 12.7651 11.2003 12.8948 11.2095C12.9108 11.2107 12.9274 11.211 12.9446 11.2112C13.0745 11.2131 13.2364 11.2156 13.3881 11.6025C13.4465 11.7514 13.5319 11.9721 13.6219 12.2049C13.8039 12.6757 14.005 13.1958 14.0407 13.2712C14.0941 13.3839 14.1285 13.5148 14.0512 13.662C14.0396 13.6841 14.0288 13.7049 14.0185 13.7248C13.9604 13.8375 13.9176 13.9205 13.8206 14.029C13.7825 14.0717 13.743 14.1178 13.7036 14.1639C13.625 14.2556 13.5464 14.3474 13.4783 14.4125C13.3644 14.5213 13.2458 14.6394 13.3711 14.8652C13.4964 15.0909 13.9285 15.8299 14.5785 16.4345C15.2774 17.0844 15.8907 17.3657 16.2016 17.5083C16.2623 17.5362 16.3114 17.5588 16.3475 17.5777C16.5679 17.6939 16.6982 17.678 16.8313 17.532C16.9644 17.386 17.4019 16.8929 17.555 16.673C17.7082 16.4531 17.856 16.4933 18.0586 16.5719C18.2614 16.6506 19.3457 17.2124 19.5662 17.3285C19.6092 17.3512 19.6495 17.3717 19.6868 17.3907Z" fill="#FDFDFD"/>
</g>
<defs>
<clipPath id="clip0_12_34">
<rect width="30" height="30" fill="white" transform="translate(30) rotate(90)"/>
</clipPath>
</defs>
</svg>
